<svg xmlns="http://www.w3.org/2000/svg" viewBox="0 0 512 512" id="stopwatch"><path d="M418.73 201.43c-.11-.23-.22-.46-.35-.68a6.71 6.71 0 0 0-.47-.71 188.88 188.88 0 0 0-67.46-67.46 7.05 7.05 0 0 0-.7-.46c-.21-.12-.43-.23-.65-.33a187.22 187.22 0 0 0-186.2 0c-.22.1-.44.21-.65.33a7.05 7.05 0 0 0-.7.46 188.91 188.91 0 0 0-67.46 67.47 5.7 5.7 0 0 0-.47.7 6 6 0 0 0-.34.67A186.34 186.34 0 0 0 68.5 294.5a186.35 186.35 0 0 0 24.76 93.05c.11.24.23.47.36.7a7.31 7.31 0 0 0 .43.65 189 189 0 0 0 67.47 67.5 7.67 7.67 0 0 0 .73.48c.18.1.36.18.54.27A186.45 186.45 0 0 0 255.92 482h.16a186.42 186.42 0 0 0 93.12-24.85c.19-.09.37-.17.55-.27a6.2 6.2 0 0 0 .73-.49 188.88 188.88 0 0 0 67.46-67.49 7.4 7.4 0 0 0 .44-.65c.13-.23.25-.46.36-.7a186.35 186.35 0 0 0 24.76-93.05 186.4 186.4 0 0 0-24.77-93.07ZM406 302h22.33A171.48 171.48 0 0 1 409 374.16L389.65 363a7.5 7.5 0 0 0-7.5 13l19.3 11.14A173.88 173.88 0 0 1 348.64 440l-11.14-19.3a7.5 7.5 0 0 0-13 7.5l11.15 19.32a171.32 171.32 0 0 1-72.16 19.35V444.5a7.5 7.5 0 0 0-15 0v22.32a171.32 171.32 0 0 1-72.16-19.35l11.16-19.32a7.5 7.5 0 0 0-13-7.5L163.36 440a173.88 173.88 0 0 1-52.81-52.81l19.3-11.19a7.5 7.5 0 0 0-7.5-13L103 374.16A171.48 171.48 0 0 1 83.67 302H106a7.5 7.5 0 0 0 0-15H83.67A171.33 171.33 0 0 1 103 214.84L122.35 226a7.5 7.5 0 0 0 7.5-13l-19.31-11.14A174.06 174.06 0 0 1 163.36 149l11.14 19.31a7.5 7.5 0 0 0 13-7.5l-11.15-19.32a171.29 171.29 0 0 1 72.16-19.36v22.37a7.5 7.5 0 0 0 15 0v-22.33a171.33 171.33 0 0 1 72.16 19.36l-11.17 19.32a7.5 7.5 0 1 0 13 7.5L348.64 149a174.17 174.17 0 0 1 52.82 52.82L382.15 213a7.5 7.5 0 0 0 7.5 13L409 214.84A171.33 171.33 0 0 1 428.33 287H406a7.5 7.5 0 0 0 0 15ZM289.34 184.4a7.5 7.5 0 0 0-9.39 4.93l-23.35 75.18h-.6a30 30 0 1 0 15.05 4.06l23.23-74.78a7.51 7.51 0 0 0-4.94-9.39ZM256 309.5a15 15 0 1 1 15-15 15 15 0 0 1-15 15Zm154.66-167.92L421.21 131l10.7 10.7a7.51 7.51 0 0 0 10.6 0l21.22-21.22a7.49 7.49 0 0 0 0-10.6l-31.82-31.79a7.5 7.5 0 0 0-10.61 0L400.09 99.3a7.5 7.5 0 0 0 0 10.61l10.51 10.51-10.85 10.86A215.5 215.5 0 0 0 278.5 78.15V62h7.5a7.5 7.5 0 0 0 7.5-7.5v-45A7.5 7.5 0 0 0 286 2h-60a7.5 7.5 0 0 0-7.5 7.5v45A7.5 7.5 0 0 0 226 62h7.5v16.15a215.51 215.51 0 0 0-120.61 52.56L102 119.84l10.52-10.52a7.52 7.52 0 0 0 0-10.61L91.32 77.5a7.49 7.49 0 0 0-10.6 0L48.9 109.32a7.5 7.5 0 0 0 0 10.61l21.21 21.21a7.5 7.5 0 0 0 10.61 0l10.69-10.69L101.94 141a217.5 217.5 0 0 0 307.85 307.29 217.48 217.48 0 0 0 .87-306.71ZM426.6 94l21.22 21.21-10.61 10.61L416 104.6ZM75.41 125.23l-10.6-10.6L86 93.41 96.63 104ZM233.5 17h45v30h-45Zm30 45v15h-15V62ZM256 497c-111.66 0-202.5-90.84-202.5-202.5C53.5 183 144.09 92.25 255.54 92h.92c111.45.25 202 91 202 202.5C458.5 406.16 367.66 497 256 497Z"></path></svg>